<!-- 正式アイコン(オーナー自作ベクター・2026-07-11採用): トマトオレンジ地×クリームのふた付き鍋。
     ドローソフト書き出し時の埋め込みビットマップレイヤーは除去し、色をブランドトークンに正規化 -->
<svg viewBox="0 0 1080 1080" version="1.1" xmlns="http://www.w3.org/2000/svg" style="fill-rule:evenodd;clip-rule:evenodd;stroke-linecap:round;stroke-linejoin:round;stroke-miterlimit:1.5;">
    <rect width="1080" height="1080" fill="#d9480f"/>
    <g id="layer2" transform="matrix(1,0,0,1,0.16656,1.5635)">
        <path d="M564.752,422.292C839.128,426.299 817.129,497.042 817.129,497.042L262.538,497.042C262.538,497.042 240.538,426.299 514.915,422.292C511.598,417.447 509.658,411.587 509.658,405.277C509.658,388.623 523.179,375.101 539.833,375.101C556.488,375.101 570.009,388.623 570.009,405.277C570.009,411.587 568.068,417.447 564.752,422.292ZM426.983,853.486C336.163,853.486 262.538,779.861 262.538,689.041L262.538,582.994C257.772,587.931 251.086,591.001 243.682,591.001L185.286,591.001C170.813,591.001 159.08,579.268 159.08,564.794L159.08,559.151C159.08,544.677 170.813,532.944 185.286,532.944L243.682,532.944C251.086,532.944 257.772,536.014 262.538,540.951L262.538,515.581L817.129,515.581L817.129,540.951C821.895,536.014 828.581,532.944 835.985,532.944L894.38,532.944C908.854,532.944 920.587,544.677 920.587,559.151L920.587,564.794C920.587,579.268 908.854,591.001 894.38,591.001L835.985,591.001C828.581,591.001 821.895,587.931 817.129,582.994L817.129,689.041C817.129,779.861 743.504,853.486 652.683,853.486L652.35,853.486L427.317,853.486L426.983,853.486Z" style="fill:#fffdf8;"/>
    </g>
    <g id="layer3">
        <g transform="matrix(1,0,0,0.904133,0,31.7384)">
            <path d="M540,218.765C540,218.765 506.513,279.047 540,331.069" style="fill:none;stroke:#fffdf8;stroke-width:43.03px;"/>
        </g>
        <g transform="matrix(1,0,0,0.904133,-127.157,31.7384)">
            <path d="M540,218.765C540,218.765 506.513,279.047 540,331.069" style="fill:none;stroke:#fffdf8;stroke-width:43.03px;"/>
        </g>
        <g transform="matrix(1,0,0,0.904133,125.316,31.7384)">
            <path d="M540,218.765C540,218.765 506.513,279.047 540,331.069" style="fill:none;stroke:#fffdf8;stroke-width:43.03px;"/>
        </g>
    </g>
</svg>
